<svg xmlns = "http://www.w3.org/2000/svg" width = "1000" height = "1000">
<g>
<polygon points = "887.025, 119.968 855.205, 148.046 793.687, 120.092 791.888, 114.390 823.752, 82.650 882.782, 58.578 915.220, 82.195 "
fill = "none" stroke = "black"/>
</g>
<g>
<polygon points = "915.220, 82.195 882.782, 58.578 854.998, 23.250 860.511, 0.000 1000.000, 0.000 1000.000, 58.348 "
fill = "none" stroke = "black"/>
</g>
<g>
<polygon points = "434.198, 427.199 410.375, 423.630 400.483, 395.649 407.936, 380.837 438.587, 374.031 464.446, 395.243 465.401, 400.696 "
fill = "none" stroke = "black"/>
</g>
<g>
<polygon points = "67.549, 887.709 49.755, 831.125 52.408, 829.707 103.277, 861.328 115.941, 893.182 67.906, 888.601 "
fill = "none" stroke = "black"/>
</g>
<g>
<polygon points = "954.902, 359.466 925.847, 346.561 920.513, 323.239 960.100, 281.170 1000.000, 269.060 1000.000, 291.148 "
fill = "none" stroke = "black"/>
</g>
<g>
<polygon points = "264.855, 506.441 251.702, 506.123 256.422, 451.047 314.565, 438.252 322.953, 456.446 "
fill = "none" stroke = "black"/>
</g>
<g>
<polygon points = "569.468, 454.426 568.438, 378.631 659.604, 398.961 655.926, 454.345 597.797, 483.210 570.911, 458.226 "
fill = "none" stroke = "black"/>
</g>
<g>
<polygon points = "978.408, 883.344 902.139, 926.072 866.297, 861.254 868.338, 825.421 872.279, 822.930 1000.000, 830.221 1000.000, 867.977 "
fill = "none" stroke = "black"/>
</g>
<g>
<polygon points = "170.733, 61.900 187.863, 62.946 183.808, 132.535 122.676, 146.983 104.066, 124.531 148.414, 73.368 "
fill = "none" stroke = "black"/>
</g>
<g>
<polygon points = "479.917, 0.636 449.016, 101.855 446.688, 103.786 403.758, 79.411 439.278, 24.351 "
fill = "none" stroke = "black"/>
</g>
<g>
<polygon points = "348.687, 509.320 379.731, 535.610 379.573, 538.581 356.551, 569.243 284.802, 592.900 290.647, 546.889 "
fill = "none" stroke = "black"/>
</g>
<g>
<polygon points = "765.750, 32.358 785.265, 104.872 711.552, 101.432 709.923, 23.944 724.963, 0.000 737.192, 0.000 "
fill = "none" stroke = "black"/>
</g>
<g>
<polygon points = "864.602, 189.950 809.919, 225.471 791.173, 225.683 734.854, 191.421 793.687, 120.092 855.205, 148.046 "
fill = "none" stroke = "black"/>
</g>
<g>
<polygon points = "860.397, 863.371 763.886, 909.222 745.291, 865.531 752.477, 845.198 "
fill = "none" stroke = "black"/>
</g>
<g>
<polygon points = "82.015, 64.486 92.044, 58.529 148.414, 73.368 104.066, 124.531 83.939, 113.932 "
fill = "none" stroke = "black"/>
</g>
<g>
<polygon points = "628.046, 626.866 653.677, 630.224 636.168, 682.946 "
fill = "none" stroke = "black"/>
</g>
<g>
<polygon points = "778.915, 278.986 763.260, 289.187 716.494, 196.387 734.854, 191.421 791.173, 225.683 "
fill = "none" stroke = "black"/>
</g>
<g>
<polygon points = "412.578, 317.347 397.892, 343.655 345.362, 351.711 331.686, 306.512 "
fill = "none" stroke = "black"/>
</g>
<g>
<polygon points = "751.337, 351.767 737.942, 349.975 715.123, 322.970 749.204, 301.386 "
fill = "none" stroke = "black"/>
</g>
<g>
<polygon points = "886.062, 397.571 865.426, 378.368 861.253, 346.499 886.505, 316.608 920.513, 323.239 925.847, 346.561 "
fill = "none" stroke = "black"/>
</g>
<g>
<polygon points = "877.594, 288.719 884.952, 259.027 960.100, 281.170 920.513, 323.239 886.505, 316.608 "
fill = "none" stroke = "black"/>
</g>
<g>
<polygon points = "734.854, 191.421 716.494, 196.387 714.187, 196.542 683.448, 140.429 689.819, 118.856 711.552, 101.432 785.265, 104.872 791.888, 114.390 793.687, 120.092 "
fill = "none" stroke = "black"/>
</g>
<g>
<polygon points = "599.222, 99.732 595.109, 113.105 576.614, 127.473 575.579, 127.492 512.639, 65.886 512.502, 65.542 510.619, 31.886 "
fill = "none" stroke = "black"/>
</g>
<g>
<polygon points = "681.346, 325.080 665.016, 260.219 672.695, 243.923 751.486, 298.750 749.204, 301.386 715.123, 322.970 "
fill = "none" stroke = "black"/>
</g>
<g>
<polygon points = "935.486, 680.183 936.984, 640.054 940.033, 633.841 954.462, 630.249 1000.000, 633.239 1000.000, 726.233 "
fill = "none" stroke = "black"/>
</g>
<g>
<polygon points = "477.963, 529.042 507.315, 485.323 518.480, 485.253 536.559, 555.212 "
fill = "none" stroke = "black"/>
</g>
<g>
<polygon points = "388.351, 646.619 386.503, 637.738 418.188, 612.211 478.560, 688.126 473.920, 696.715 442.838, 701.349 "
fill = "none" stroke = "black"/>
</g>
<g>
<polygon points = "633.547, 715.686 636.708, 715.621 673.842, 738.191 678.930, 763.864 667.020, 785.627 608.153, 817.375 605.565, 817.744 603.320, 816.871 590.351, 787.435 608.970, 721.962 609.001, 721.908 "
fill = "none" stroke = "black"/>
</g>
<g>
<polygon points = "743.335, 998.644 655.774, 930.151 761.683, 918.798 769.635, 943.141 "
fill = "none" stroke = "black"/>
</g>
<g>
<polygon points = "961.019, 373.462 954.902, 359.466 1000.000, 291.148 1000.000, 393.155 "
fill = "none" stroke = "black"/>
</g>
<g>
<polygon points = "690.731, 472.281 741.304, 441.700 747.814, 439.652 755.658, 466.509 742.944, 535.301 716.613, 528.677 697.423, 495.636 "
fill = "none" stroke = "black"/>
</g>
<g>
<polygon points = "214.739, 510.938 208.728, 506.311 223.148, 448.344 256.422, 451.047 251.702, 506.123 "
fill = "none" stroke = "black"/>
</g>
<g>
<polygon points = "223.383, 680.245 167.629, 703.392 165.848, 674.092 166.378, 671.831 186.152, 663.903 "
fill = "none" stroke = "black"/>
</g>
<g>
<polygon points = "505.839, 2.934 510.619, 31.886 512.502, 65.542 453.937, 100.686 449.016, 101.855 479.917, 0.636 480.580, 0.000 503.866, 0.000 "
fill = "none" stroke = "black"/>
</g>
<g>
<polygon points = "121.723, 23.807 170.733, 61.900 148.414, 73.368 92.044, 58.529 "
fill = "none" stroke = "black"/>
</g>
<g>
<polygon points = "115.250, 960.850 72.404, 943.538 67.906, 888.601 115.941, 893.182 130.478, 908.672 "
fill = "none" stroke = "black"/>
</g>
<g>
<polygon points = "923.498, 404.817 961.019, 373.462 1000.000, 393.155 1000.000, 452.031 "
fill = "none" stroke = "black"/>
</g>
<g>
<polygon points = "49.755, 831.125 67.549, 887.709 0.000, 925.904 0.000, 834.608 "
fill = "none" stroke = "black"/>
</g>
<g>
<polygon points = "809.829, 329.900 823.504, 321.521 861.253, 346.499 865.426, 378.368 819.084, 386.174 "
fill = "none" stroke = "black"/>
</g>
<g>
<polygon points = "441.243, 963.309 455.014, 929.143 503.060, 939.773 527.499, 955.390 518.193, 1000.000 436.277, 1000.000 "
fill = "none" stroke = "black"/>
</g>
<g>
<polygon points = "527.499, 955.390 557.479, 936.004 610.834, 943.987 627.947, 952.862 627.640, 1000.000 518.193, 1000.000 "
fill = "none" stroke = "black"/>
</g>
<g>
<polygon points = "859.818, 459.323 864.819, 498.497 803.235, 529.711 802.762, 503.700 816.747, 458.748 "
fill = "none" stroke = "black"/>
</g>
<g>
<polygon points = "349.651, 938.668 346.805, 913.816 441.243, 963.309 436.277, 1000.000 393.305, 1000.000 "
fill = "none" stroke = "black"/>
</g>
<g>
<polygon points = "317.652, 750.037 368.945, 734.968 385.822, 742.062 396.836, 776.918 340.097, 810.355 309.587, 784.715 309.957, 758.279 "
fill = "none" stroke = "black"/>
</g>
<g>
<polygon points = "263.480, 860.514 284.265, 805.142 306.078, 789.044 313.771, 892.772 310.506, 891.568 "
fill = "none" stroke = "black"/>
</g>
<g>
<polygon points = "777.293, 623.011 800.142, 640.098 770.693, 680.530 749.593, 693.791 722.576, 654.334 "
fill = "none" stroke = "black"/>
</g>
<g>
<polygon points = "570.911, 458.226 597.797, 483.210 597.282, 514.022 539.113, 557.215 536.559, 555.212 518.480, 485.253 "
fill = "none" stroke = "black"/>
</g>
<g>
<polygon points = "745.712, 419.975 702.074, 387.731 716.173, 379.117 749.519, 401.292 "
fill = "none" stroke = "black"/>
</g>
<g>
<polygon points = "147.788, 201.669 118.527, 220.228 94.690, 223.349 100.458, 181.005 121.035, 160.966 "
fill = "none" stroke = "black"/>
</g>
<g>
<polygon points = "209.531, 943.833 310.506, 891.568 313.771, 892.772 314.578, 893.190 294.332, 928.464 206.258, 962.904 "
fill = "none" stroke = "black"/>
</g>
<g>
<polygon points = "137.391, 439.275 207.811, 416.137 213.076, 420.497 223.148, 448.344 208.728, 506.311 187.137, 504.719 "
fill = "none" stroke = "black"/>
</g>
<g>
<polygon points = "116.676, 629.192 134.735, 584.391 203.694, 604.330 161.918, 655.123 "
fill = "none" stroke = "black"/>
</g>
<g>
<polygon points = "283.980, 955.778 294.332, 928.464 314.578, 893.190 341.423, 895.401 346.805, 913.816 349.651, 938.668 312.038, 1000.000 305.008, 1000.000 "
fill = "none" stroke = "black"/>
</g>
<g>
<polygon points = "759.026, 295.973 789.340, 333.087 769.825, 364.097 751.337, 351.767 749.204, 301.386 751.486, 298.750 "
fill = "none" stroke = "black"/>
</g>
<g>
<polygon points = "284.321, 85.004 239.007, 65.553 216.962, 40.236 227.983, 0.000 317.093, 0.000 "
fill = "none" stroke = "black"/>
</g>
<g>
<polygon points = "635.625, 132.139 683.448, 140.429 714.187, 196.542 675.045, 231.864 636.147, 210.736 "
fill = "none" stroke = "black"/>
</g>
<g>
<polygon points = "590.142, 876.364 610.834, 943.987 557.479, 936.004 544.289, 896.607 "
fill = "none" stroke = "black"/>
</g>
<g>
<polygon points = "954.462, 630.249 948.645, 546.467 1000.000, 565.604 1000.000, 633.239 "
fill = "none" stroke = "black"/>
</g>
<g>
<polygon points = "627.947, 952.862 655.772, 930.151 655.774, 930.151 743.335, 998.644 743.190, 1000.000 627.640, 1000.000 "
fill = "none" stroke = "black"/>
</g>
<g>
<polygon points = "536.117, 289.452 560.501, 244.289 564.265, 245.384 602.969, 286.209 585.413, 331.049 557.363, 356.971 541.047, 346.136 "
fill = "none" stroke = "black"/>
</g>
<g>
<polygon points = "603.470, 45.466 611.267, 71.281 599.222, 99.732 510.619, 31.886 505.839, 2.934 "
fill = "none" stroke = "black"/>
</g>
<g>
<polygon points = "948.645, 546.467 940.625, 540.099 939.369, 518.151 1000.000, 459.768 1000.000, 565.604 "
fill = "none" stroke = "black"/>
</g>
<g>
<polygon points = "661.264, 66.523 709.923, 23.944 711.552, 101.432 689.819, 118.856 "
fill = "none" stroke = "black"/>
</g>
<g>
<polygon points = "33.319, 598.887 92.641, 557.105 124.377, 562.706 134.735, 584.391 116.676, 629.192 99.814, 646.643 "
fill = "none" stroke = "black"/>
</g>
<g>
<polygon points = "922.451, 648.020 864.049, 664.384 861.929, 663.887 865.999, 654.152 920.499, 618.822 940.033, 633.841 936.984, 640.054 "
fill = "none" stroke = "black"/>
</g>
<g>
<polygon points = "488.873, 354.752 511.906, 339.887 541.047, 346.136 557.363, 356.971 557.977, 360.301 492.230, 416.874 465.401, 400.696 464.446, 395.243 "
fill = "none" stroke = "black"/>
</g>
<g>
<polygon points = "901.888, 929.611 902.139, 926.072 978.408, 883.344 998.769, 973.793 "
fill = "none" stroke = "black"/>
</g>
<g>
<polygon points = "844.205, 27.241 823.752, 82.650 791.888, 114.390 785.265, 104.872 765.750, 32.358 "
fill = "none" stroke = "black"/>
</g>
<g>
<polygon points = "386.386, 883.089 416.189, 796.438 476.954, 808.544 483.512, 851.937 445.591, 893.886 "
fill = "none" stroke = "black"/>
</g>
<g>
<polygon points = "722.575, 371.132 757.316, 383.063 749.519, 401.292 716.173, 379.117 "
fill = "none" stroke = "black"/>
</g>
<g>
<polygon points = "5.251, 243.721 44.535, 288.310 23.629, 307.784 0.000, 319.710 0.000, 242.767 "
fill = "none" stroke = "black"/>
</g>
<g>
<polygon points = "458.988, 464.609 452.360, 475.700 400.991, 457.382 394.723, 444.330 410.375, 423.630 434.198, 427.199 "
fill = "none" stroke = "black"/>
</g>
<g>
<polygon points = "439.278, 24.351 403.758, 79.411 363.494, 83.380 355.850, 55.913 405.389, 19.846 "
fill = "none" stroke = "black"/>
</g>
<g>
<polygon points = "89.871, 679.173 93.371, 729.069 0.000, 721.618 0.000, 647.953 "
fill = "none" stroke = "black"/>
</g>
<g>
<polygon points = "33.724, 224.092 49.608, 216.127 80.614, 243.113 87.434, 282.945 44.535, 288.310 5.251, 243.721 "
fill = "none" stroke = "black"/>
</g>
<g>
<polygon points = "445.591, 893.886 483.512, 851.937 516.177, 867.413 503.060, 939.773 455.014, 929.143 "
fill = "none" stroke = "black"/>
</g>
<g>
<polygon points = "124.377, 562.706 134.117, 544.393 187.137, 504.719 208.728, 506.311 214.739, 510.938 229.605, 602.218 212.820, 604.429 203.694, 604.330 134.735, 584.391 "
fill = "none" stroke = "black"/>
</g>
<g>
<polygon points = "462.877, 288.616 434.884, 285.309 428.404, 274.692 440.242, 200.954 453.643, 174.888 489.453, 178.312 518.034, 220.614 495.128, 263.165 "
fill = "none" stroke = "black"/>
</g>
<g>
<polygon points = "161.918, 655.123 203.694, 604.330 212.820, 604.429 186.152, 663.903 166.378, 671.831 "
fill = "none" stroke = "black"/>
</g>
<g>
<polygon points = "371.972, 256.429 326.670, 195.869 326.120, 188.117 395.481, 211.310 "
fill = "none" stroke = "black"/>
</g>
<g>
<polygon points = "960.100, 281.170 884.952, 259.027 883.667, 256.384 880.727, 204.055 977.760, 198.292 1000.000, 200.330 1000.000, 269.060 "
fill = "none" stroke = "black"/>
</g>
<g>
<polygon points = "844.205, 27.241 854.998, 23.250 882.782, 58.578 823.752, 82.650 "
fill = "none" stroke = "black"/>
</g>
<g>
<polygon points = "214.929, 773.991 212.314, 768.241 223.348, 758.679 260.839, 751.550 309.957, 758.279 309.587, 784.715 306.078, 789.044 284.265, 805.142 "
fill = "none" stroke = "black"/>
</g>
<g>
<polygon points = "425.201, 596.941 425.626, 596.837 504.525, 651.740 501.820, 663.418 478.560, 688.126 418.188, 612.211 "
fill = "none" stroke = "black"/>
</g>
<g>
<polygon points = "117.561, 759.526 129.252, 761.076 141.846, 800.397 151.643, 853.435 103.277, 861.328 52.408, 829.707 "
fill = "none" stroke = "black"/>
</g>
<g>
<polygon points = "747.922, 439.533 798.838, 435.014 816.747, 458.748 802.762, 503.700 755.658, 466.509 747.814, 439.652 "
fill = "none" stroke = "black"/>
</g>
<g>
<polygon points = "896.732, 683.780 864.049, 664.384 922.451, 648.020 "
fill = "none" stroke = "black"/>
</g>
<g>
<polygon points = "828.357, 265.880 820.558, 289.754 778.915, 278.986 791.173, 225.683 809.919, 225.471 "
fill = "none" stroke = "black"/>
</g>
<g>
<polygon points = "66.607, 524.609 92.641, 557.105 33.319, 598.887 0.000, 601.749 0.000, 570.689 "
fill = "none" stroke = "black"/>
</g>
<g>
<polygon points = "194.797, 141.428 242.923, 137.914 292.849, 162.636 263.971, 188.231 235.866, 205.352 195.911, 162.578 "
fill = "none" stroke = "black"/>
</g>
<g>
<polygon points = "199.793, 881.250 225.591, 858.756 230.981, 855.094 263.480, 860.514 310.506, 891.568 209.531, 943.833 "
fill = "none" stroke = "black"/>
</g>
<g>
<polygon points = "367.101, 629.363 293.046, 647.391 277.713, 644.833 271.840, 640.549 264.011, 620.364 284.802, 592.900 356.551, 569.243 "
fill = "none" stroke = "black"/>
</g>
<g>
<polygon points = "395.481, 211.310 326.120, 188.117 318.422, 159.480 332.250, 140.099 452.090, 173.059 453.643, 174.888 440.242, 200.954 "
fill = "none" stroke = "black"/>
</g>
<g>
<polygon points = "998.769, 973.793 978.408, 883.344 1000.000, 867.977 1000.000, 974.538 "
fill = "none" stroke = "black"/>
</g>
<g>
<polygon points = "557.977, 360.301 557.363, 356.971 585.413, 331.049 669.909, 344.292 667.489, 390.181 659.604, 398.961 568.438, 378.631 "
fill = "none" stroke = "black"/>
</g>
<g>
<polygon points = "489.448, 730.104 496.541, 781.981 476.954, 808.544 416.189, 796.438 403.639, 785.753 396.836, 776.918 385.822, 742.062 442.838, 701.349 473.920, 696.715 "
fill = "none" stroke = "black"/>
</g>
<g>
<polygon points = "239.007, 65.553 284.321, 85.004 332.250, 140.092 332.250, 140.099 318.422, 159.480 292.849, 162.636 242.923, 137.914 "
fill = "none" stroke = "black"/>
</g>
<g>
<polygon points = "656.561, 888.623 605.565, 817.744 608.153, 817.375 685.656, 825.473 691.108, 844.234 "
fill = "none" stroke = "black"/>
</g>
<g>
<polygon points = "716.288, 797.062 693.040, 814.424 667.020, 785.627 678.930, 763.864 "
fill = "none" stroke = "black"/>
</g>
<g>
<polygon points = "622.665, 540.544 633.863, 558.420 606.359, 609.412 537.662, 574.645 539.113, 557.215 597.282, 514.022 "
fill = "none" stroke = "black"/>
</g>
<g>
<polygon points = "709.923, 23.944 661.264, 66.523 611.267, 71.281 603.470, 45.466 624.145, 0.000 724.963, 0.000 "
fill = "none" stroke = "black"/>
</g>
<g>
<polygon points = "496.541, 781.981 489.448, 730.104 608.970, 721.962 590.351, 787.435 "
fill = "none" stroke = "black"/>
</g>
<g>
<polygon points = "96.052, 663.301 99.814, 646.643 116.676, 629.192 161.918, 655.123 166.378, 671.831 165.848, 674.092 "
fill = "none" stroke = "black"/>
</g>
<g>
<polygon points = "710.834, 647.246 722.576, 654.334 749.593, 693.791 755.298, 727.734 673.842, 738.191 636.708, 715.621 "
fill = "none" stroke = "black"/>
</g>
<g>
<polygon points = "889.264, 405.512 888.327, 409.615 801.519, 428.705 808.265, 392.729 819.084, 386.174 865.426, 378.368 886.062, 397.571 "
fill = "none" stroke = "black"/>
</g>
<g>
<polygon points = "11.187, 138.426 48.241, 186.703 49.608, 216.127 33.724, 224.092 0.000, 189.418 0.000, 136.193 "
fill = "none" stroke = "black"/>
</g>
<g>
<polygon points = "72.404, 943.538 115.250, 960.850 140.387, 1000.000 0.000, 1000.000 0.000, 954.846 "
fill = "none" stroke = "black"/>
</g>
<g>
<polygon points = "593.067, 638.638 592.902, 698.078 501.820, 663.418 504.525, 651.740 515.518, 626.525 "
fill = "none" stroke = "black"/>
</g>
<g>
<polygon points = "213.076, 420.497 296.957, 399.689 311.092, 408.805 314.565, 438.252 256.422, 451.047 223.148, 448.344 "
fill = "none" stroke = "black"/>
</g>
<g>
<polygon points = "100.278, 426.765 101.689, 394.458 205.679, 374.482 207.811, 416.137 137.391, 439.275 "
fill = "none" stroke = "black"/>
</g>
<g>
<polygon points = "495.128, 263.165 518.034, 220.614 543.227, 228.487 560.501, 244.289 536.117, 289.452 "
fill = "none" stroke = "black"/>
</g>
<g>
<polygon points = "824.011, 642.438 841.819, 667.746 770.693, 680.530 800.142, 640.098 "
fill = "none" stroke = "black"/>
</g>
<g>
<polygon points = "785.385, 765.423 755.298, 727.734 749.593, 693.791 770.693, 680.530 841.819, 667.746 845.676, 670.867 839.960, 715.532 796.545, 766.038 "
fill = "none" stroke = "black"/>
</g>
<g>
<polygon points = "489.448, 730.104 473.920, 696.715 478.560, 688.126 501.820, 663.418 592.902, 698.078 609.001, 721.908 608.970, 721.962 "
fill = "none" stroke = "black"/>
</g>
<g>
<polygon points = "876.190, 979.374 769.635, 943.141 761.683, 918.798 763.886, 909.222 860.397, 863.371 866.297, 861.254 902.139, 926.072 901.888, 929.611 "
fill = "none" stroke = "black"/>
</g>
<g>
<polygon points = "480.848, 458.624 495.218, 434.220 569.468, 454.426 570.911, 458.226 518.480, 485.253 507.315, 485.323 "
fill = "none" stroke = "black"/>
</g>
<g>
<polygon points = "802.762, 503.700 803.235, 529.711 800.749, 536.113 762.299, 547.337 742.944, 535.301 755.658, 466.509 "
fill = "none" stroke = "black"/>
</g>
<g>
<polygon points = "669.711, 568.818 716.613, 528.677 742.944, 535.301 762.299, 547.337 759.975, 559.335 703.986, 632.338 693.619, 624.375 "
fill = "none" stroke = "black"/>
</g>
<g>
<polygon points = "264.011, 620.364 229.605, 602.218 214.739, 510.938 251.702, 506.123 264.855, 506.441 290.647, 546.889 284.802, 592.900 "
fill = "none" stroke = "black"/>
</g>
<g>
<polygon points = "346.351, 853.059 340.097, 810.355 396.836, 776.918 403.639, 785.753 "
fill = "none" stroke = "black"/>
</g>
<g>
<polygon points = "141.797, 757.235 129.252, 761.076 117.561, 759.526 93.371, 729.069 89.871, 679.173 96.052, 663.301 165.848, 674.092 167.629, 703.392 "
fill = "none" stroke = "black"/>
</g>
<g>
<polygon points = "405.389, 19.846 355.850, 55.913 323.846, 0.000 389.100, 0.000 "
fill = "none" stroke = "black"/>
</g>
<g>
<polygon points = "910.761, 700.047 907.033, 728.307 839.960, 715.532 845.676, 670.867 861.929, 663.887 864.049, 664.384 896.732, 683.780 "
fill = "none" stroke = "black"/>
</g>
<g>
<polygon points = "83.939, 113.932 104.066, 124.531 122.676, 146.983 121.035, 160.966 100.458, 181.005 48.241, 186.703 11.187, 138.426 "
fill = "none" stroke = "black"/>
</g>
<g>
<polygon points = "23.629, 307.784 44.535, 288.310 87.434, 282.945 121.993, 307.147 98.970, 377.865 64.017, 366.913 "
fill = "none" stroke = "black"/>
</g>
<g>
<polygon points = "195.911, 162.578 235.866, 205.352 194.425, 274.592 168.611, 216.742 "
fill = "none" stroke = "black"/>
</g>
<g>
<polygon points = "736.986, 864.826 691.108, 844.234 685.656, 825.473 693.040, 814.424 716.288, 797.062 761.915, 791.212 752.477, 845.198 745.291, 865.531 "
fill = "none" stroke = "black"/>
</g>
<g>
<polygon points = "216.962, 40.236 187.863, 62.946 170.733, 61.900 121.723, 23.807 119.629, 1.240 119.895, 0.000 227.983, 0.000 "
fill = "none" stroke = "black"/>
</g>
<g>
<polygon points = "977.760, 198.292 887.025, 119.968 915.220, 82.195 1000.000, 58.348 1000.000, 200.330 "
fill = "none" stroke = "black"/>
</g>
<g>
<polygon points = "661.264, 66.523 689.819, 118.856 683.448, 140.429 635.625, 132.139 595.109, 113.105 599.222, 99.732 611.267, 71.281 "
fill = "none" stroke = "black"/>
</g>
<g>
<polygon points = "796.545, 766.038 839.960, 715.532 907.033, 728.307 924.171, 753.352 872.279, 822.930 868.338, 825.421 "
fill = "none" stroke = "black"/>
</g>
<g>
<polygon points = "358.644, 698.920 388.351, 646.619 442.838, 701.349 385.822, 742.062 368.945, 734.968 "
fill = "none" stroke = "black"/>
</g>
<g>
<polygon points = "801.519, 428.705 888.327, 409.615 886.491, 435.024 859.818, 459.323 816.747, 458.748 798.838, 435.014 "
fill = "none" stroke = "black"/>
</g>
<g>
<polygon points = "216.962, 40.236 239.007, 65.553 242.923, 137.914 194.797, 141.428 183.808, 132.535 187.863, 62.946 "
fill = "none" stroke = "black"/>
</g>
<g>
<polygon points = "77.727, 442.794 51.138, 485.027 0.000, 500.590 0.000, 413.837 "
fill = "none" stroke = "black"/>
</g>
<g>
<polygon points = "602.969, 286.209 564.265, 245.384 620.613, 206.297 636.147, 210.736 675.045, 231.864 672.695, 243.923 665.016, 260.219 "
fill = "none" stroke = "black"/>
</g>
<g>
<polygon points = "761.683, 918.798 655.774, 930.151 655.772, 930.151 658.883, 903.370 736.986, 864.826 745.291, 865.531 763.886, 909.222 "
fill = "none" stroke = "black"/>
</g>
<g>
<polygon points = "445.924, 351.350 488.873, 354.752 464.446, 395.243 438.587, 374.031 "
fill = "none" stroke = "black"/>
</g>
<g>
<polygon points = "341.423, 895.401 342.387, 894.615 386.386, 883.089 445.591, 893.886 455.014, 929.143 441.243, 963.309 346.805, 913.816 "
fill = "none" stroke = "black"/>
</g>
<g>
<polygon points = "516.177, 867.413 522.156, 868.704 544.289, 896.607 557.479, 936.004 527.499, 955.390 503.060, 939.773 "
fill = "none" stroke = "black"/>
</g>
<g>
<polygon points = "329.157, 302.804 281.441, 289.136 326.670, 195.869 371.972, 256.429 373.246, 259.275 "
fill = "none" stroke = "black"/>
</g>
<g>
<polygon points = "516.131, 610.266 458.165, 579.247 467.462, 529.983 477.963, 529.042 536.559, 555.212 539.113, 557.215 537.662, 574.645 "
fill = "none" stroke = "black"/>
</g>
<g>
<polygon points = "903.083, 451.177 886.491, 435.024 888.327, 409.615 889.264, 405.512 923.498, 404.817 1000.000, 452.031 1000.000, 455.743 "
fill = "none" stroke = "black"/>
</g>
<g>
<polygon points = "880.727, 204.055 883.667, 256.384 828.357, 265.880 809.919, 225.471 864.602, 189.950 "
fill = "none" stroke = "black"/>
</g>
<g>
<polygon points = "230.981, 855.094 214.929, 773.991 284.265, 805.142 263.480, 860.514 "
fill = "none" stroke = "black"/>
</g>
<g>
<polygon points = "883.667, 256.384 884.952, 259.027 877.594, 288.719 825.643, 300.641 820.558, 289.754 828.357, 265.880 "
fill = "none" stroke = "black"/>
</g>
<g>
<polygon points = "407.011, 518.648 442.201, 512.436 467.462, 529.983 458.165, 579.247 425.626, 596.837 425.201, 596.941 379.573, 538.581 379.731, 535.610 "
fill = "none" stroke = "black"/>
</g>
<g>
<polygon points = "693.619, 624.375 703.986, 632.338 710.834, 647.246 636.708, 715.621 633.547, 715.686 636.168, 682.946 653.677, 630.224 "
fill = "none" stroke = "black"/>
</g>
<g>
<polygon points = "923.498, 404.817 889.264, 405.512 886.062, 397.571 925.847, 346.561 954.902, 359.466 961.019, 373.462 "
fill = "none" stroke = "black"/>
</g>
<g>
<polygon points = "888.992, 581.425 940.625, 540.099 948.645, 546.467 954.462, 630.249 940.033, 633.841 920.499, 618.822 "
fill = "none" stroke = "black"/>
</g>
<g>
<polygon points = "226.973, 307.429 205.679, 374.482 101.689, 394.458 98.970, 377.865 121.993, 307.147 160.061, 294.111 194.326, 285.010 "
fill = "none" stroke = "black"/>
</g>
<g>
<polygon points = "924.171, 753.352 907.033, 728.307 910.761, 700.047 935.486, 680.183 1000.000, 726.233 1000.000, 748.981 "
fill = "none" stroke = "black"/>
</g>
<g>
<polygon points = "479.917, 0.636 439.278, 24.351 405.389, 19.846 389.100, 0.000 480.580, 0.000 "
fill = "none" stroke = "black"/>
</g>
<g>
<polygon points = "33.724, 224.092 5.251, 243.721 0.000, 242.767 0.000, 189.418 "
fill = "none" stroke = "black"/>
</g>
<g>
<polygon points = "93.371, 729.069 117.561, 759.526 52.408, 829.707 49.755, 831.125 0.000, 834.608 0.000, 721.618 "
fill = "none" stroke = "black"/>
</g>
<g>
<polygon points = "878.054, 508.462 919.238, 505.077 939.369, 518.151 940.625, 540.099 888.992, 581.425 878.012, 580.948 865.868, 575.748 "
fill = "none" stroke = "black"/>
</g>
<g>
<polygon points = "342.387, 894.615 346.351, 853.059 403.639, 785.753 416.189, 796.438 386.386, 883.089 "
fill = "none" stroke = "black"/>
</g>
<g>
<polygon points = "693.040, 814.424 685.656, 825.473 608.153, 817.375 667.020, 785.627 "
fill = "none" stroke = "black"/>
</g>
<g>
<polygon points = "658.883, 903.370 655.772, 930.151 627.947, 952.862 610.834, 943.987 590.142, 876.364 598.938, 822.737 603.320, 816.871 605.565, 817.744 656.561, 888.623 "
fill = "none" stroke = "black"/>
</g>
<g>
<polygon points = "903.083, 451.177 919.238, 505.077 878.054, 508.462 864.819, 498.497 859.818, 459.323 886.491, 435.024 "
fill = "none" stroke = "black"/>
</g>
<g>
<polygon points = "141.797, 757.235 167.629, 703.392 223.383, 680.245 237.020, 678.139 223.348, 758.679 212.314, 768.241 "
fill = "none" stroke = "black"/>
</g>
<g>
<polygon points = "825.643, 300.641 877.594, 288.719 886.505, 316.608 861.253, 346.499 823.504, 321.521 "
fill = "none" stroke = "black"/>
</g>
<g>
<polygon points = "458.165, 579.247 516.131, 610.266 515.518, 626.525 504.525, 651.740 425.626, 596.837 "
fill = "none" stroke = "black"/>
</g>
<g>
<polygon points = "977.760, 198.292 880.727, 204.055 864.602, 189.950 855.205, 148.046 887.025, 119.968 "
fill = "none" stroke = "black"/>
</g>
<g>
<polygon points = "324.827, 457.848 394.723, 444.330 400.991, 457.382 407.011, 518.648 379.731, 535.610 348.687, 509.320 "
fill = "none" stroke = "black"/>
</g>
<g>
<polygon points = "333.870, 388.065 311.092, 408.805 296.957, 399.689 232.298, 308.050 275.326, 290.815 281.441, 289.136 329.157, 302.804 331.686, 306.512 345.362, 351.711 "
fill = "none" stroke = "black"/>
</g>
<g>
<polygon points = "755.298, 727.734 785.385, 765.423 761.915, 791.212 716.288, 797.062 678.930, 763.864 673.842, 738.191 "
fill = "none" stroke = "black"/>
</g>
<g>
<polygon points = "40.808, 31.311 82.015, 64.486 83.939, 113.932 11.187, 138.426 0.000, 136.193 0.000, 12.254 "
fill = "none" stroke = "black"/>
</g>
<g>
<polygon points = "119.629, 1.240 40.808, 31.311 0.000, 12.254 0.000, 0.000 119.895, 0.000 "
fill = "none" stroke = "black"/>
</g>
<g>
<polygon points = "151.643, 853.435 167.397, 876.465 130.478, 908.672 115.941, 893.182 103.277, 861.328 "
fill = "none" stroke = "black"/>
</g>
<g>
<polygon points = "48.241, 186.703 100.458, 181.005 94.690, 223.349 80.614, 243.113 49.608, 216.127 "
fill = "none" stroke = "black"/>
</g>
<g>
<polygon points = "64.017, 366.913 98.970, 377.865 101.689, 394.458 100.278, 426.765 92.161, 434.917 77.727, 442.794 0.000, 413.837 0.000, 363.923 "
fill = "none" stroke = "black"/>
</g>
<g>
<polygon points = "543.227, 228.487 587.556, 170.241 620.613, 206.297 564.265, 245.384 560.501, 244.289 "
fill = "none" stroke = "black"/>
</g>
<g>
<polygon points = "607.335, 617.812 606.359, 609.412 633.863, 558.420 669.711, 568.818 693.619, 624.375 653.677, 630.224 628.046, 626.866 "
fill = "none" stroke = "black"/>
</g>
<g>
<polygon points = "260.839, 751.550 282.292, 667.348 317.652, 750.037 309.957, 758.279 "
fill = "none" stroke = "black"/>
</g>
<g>
<polygon points = "206.258, 962.904 294.332, 928.464 283.980, 955.778 197.374, 994.996 "
fill = "none" stroke = "black"/>
</g>
<g>
<polygon points = "770.340, 368.360 757.316, 383.063 722.575, 371.132 723.098, 363.908 737.942, 349.975 751.337, 351.767 769.825, 364.097 "
fill = "none" stroke = "black"/>
</g>
<g>
<polygon points = "33.319, 598.887 99.814, 646.643 96.052, 663.301 89.871, 679.173 0.000, 647.953 0.000, 601.749 "
fill = "none" stroke = "black"/>
</g>
<g>
<polygon points = "831.640, 596.768 844.394, 574.901 865.868, 575.748 878.012, 580.948 865.999, 654.152 861.929, 663.887 845.676, 670.867 841.819, 667.746 824.011, 642.438 "
fill = "none" stroke = "black"/>
</g>
<g>
<polygon points = "212.820, 604.429 229.605, 602.218 264.011, 620.364 271.840, 640.549 237.020, 678.139 223.383, 680.245 186.152, 663.903 "
fill = "none" stroke = "black"/>
</g>
<g>
<polygon points = "910.761, 700.047 896.732, 683.780 922.451, 648.020 936.984, 640.054 935.486, 680.183 "
fill = "none" stroke = "black"/>
</g>
<g>
<polygon points = "587.556, 170.241 543.227, 228.487 518.034, 220.614 489.453, 178.312 517.189, 152.256 575.579, 127.492 576.614, 127.473 "
fill = "none" stroke = "black"/>
</g>
<g>
<polygon points = "598.938, 822.737 522.156, 868.704 516.177, 867.413 483.512, 851.937 476.954, 808.544 496.541, 781.981 590.351, 787.435 603.320, 816.871 "
fill = "none" stroke = "black"/>
</g>
<g>
<polygon points = "293.046, 647.391 367.101, 629.363 386.503, 637.738 388.351, 646.619 358.644, 698.920 "
fill = "none" stroke = "black"/>
</g>
<g>
<polygon points = "355.850, 55.913 363.494, 83.380 332.250, 140.092 284.321, 85.004 317.093, 0.000 323.846, 0.000 "
fill = "none" stroke = "black"/>
</g>
<g>
<polygon points = "358.644, 698.920 368.945, 734.968 317.652, 750.037 282.292, 667.348 277.713, 644.833 293.046, 647.391 "
fill = "none" stroke = "black"/>
</g>
<g>
<polygon points = "197.374, 994.996 283.980, 955.778 305.008, 1000.000 194.781, 1000.000 "
fill = "none" stroke = "black"/>
</g>
<g>
<polygon points = "872.279, 822.930 924.171, 753.352 1000.000, 748.981 1000.000, 830.221 "
fill = "none" stroke = "black"/>
</g>
<g>
<polygon points = "333.870, 388.065 345.362, 351.711 397.892, 343.655 407.936, 380.837 400.483, 395.649 "
fill = "none" stroke = "black"/>
</g>
<g>
<polygon points = "342.387, 894.615 341.423, 895.401 314.578, 893.190 313.771, 892.772 306.078, 789.044 309.587, 784.715 340.097, 810.355 346.351, 853.059 "
fill = "none" stroke = "black"/>
</g>
<g>
<polygon points = "495.218, 434.220 492.230, 416.874 557.977, 360.301 568.438, 378.631 569.468, 454.426 "
fill = "none" stroke = "black"/>
</g>
<g>
<polygon points = "23.629, 307.784 64.017, 366.913 0.000, 363.923 0.000, 319.710 "
fill = "none" stroke = "black"/>
</g>
<g>
<polygon points = "743.335, 998.644 769.635, 943.141 876.190, 979.374 876.482, 1000.000 743.190, 1000.000 "
fill = "none" stroke = "black"/>
</g>
<g>
<polygon points = "373.246, 259.275 371.972, 256.429 395.481, 211.310 440.242, 200.954 428.404, 274.692 "
fill = "none" stroke = "black"/>
</g>
<g>
<polygon points = "311.092, 408.805 333.870, 388.065 400.483, 395.649 410.375, 423.630 394.723, 444.330 324.827, 457.848 322.953, 456.446 314.565, 438.252 "
fill = "none" stroke = "black"/>
</g>
<g>
<polygon points = "603.470, 45.466 505.839, 2.934 503.866, 0.000 624.145, 0.000 "
fill = "none" stroke = "black"/>
</g>
<g>
<polygon points = "492.230, 416.874 495.218, 434.220 480.848, 458.624 458.988, 464.609 434.198, 427.199 465.401, 400.696 "
fill = "none" stroke = "black"/>
</g>
<g>
<polygon points = "876.482, 1000.000 876.190, 979.374 901.888, 929.611 998.769, 973.793 1000.000, 974.538 1000.000, 1000.000 "
fill = "none" stroke = "black"/>
</g>
<g>
<polygon points = "230.981, 855.094 225.591, 858.756 141.846, 800.397 129.252, 761.076 141.797, 757.235 212.314, 768.241 214.929, 773.991 "
fill = "none" stroke = "black"/>
</g>
<g>
<polygon points = "761.915, 791.212 785.385, 765.423 796.545, 766.038 868.338, 825.421 866.297, 861.254 860.397, 863.371 752.477, 845.198 "
fill = "none" stroke = "black"/>
</g>
<g>
<polygon points = "800.749, 536.113 803.235, 529.711 864.819, 498.497 878.054, 508.462 865.868, 575.748 844.394, 574.901 "
fill = "none" stroke = "black"/>
</g>
<g>
<polygon points = "160.061, 294.111 121.993, 307.147 87.434, 282.945 80.614, 243.113 94.690, 223.349 118.527, 220.228 "
fill = "none" stroke = "black"/>
</g>
<g>
<polygon points = "668.076, 390.265 667.489, 390.181 669.909, 344.292 679.095, 330.620 723.098, 363.908 722.575, 371.132 716.173, 379.117 702.074, 387.731 "
fill = "none" stroke = "black"/>
</g>
<g>
<polygon points = "282.292, 667.348 260.839, 751.550 223.348, 758.679 237.020, 678.139 271.840, 640.549 277.713, 644.833 "
fill = "none" stroke = "black"/>
</g>
<g>
<polygon points = "658.883, 903.370 656.561, 888.623 691.108, 844.234 736.986, 864.826 "
fill = "none" stroke = "black"/>
</g>
<g>
<polygon points = "808.265, 392.729 770.340, 368.360 769.825, 364.097 789.340, 333.087 809.829, 329.900 819.084, 386.174 "
fill = "none" stroke = "black"/>
</g>
<g>
<polygon points = "633.547, 715.686 609.001, 721.908 592.902, 698.078 593.067, 638.638 607.335, 617.812 628.046, 626.866 636.168, 682.946 "
fill = "none" stroke = "black"/>
</g>
<g>
<polygon points = "425.201, 596.941 418.188, 612.211 386.503, 637.738 367.101, 629.363 356.551, 569.243 379.573, 538.581 "
fill = "none" stroke = "black"/>
</g>
<g>
<polygon points = "452.090, 173.059 332.250, 140.099 332.250, 140.092 363.494, 83.380 403.758, 79.411 446.688, 103.786 "
fill = "none" stroke = "black"/>
</g>
<g>
<polygon points = "51.138, 485.027 77.727, 442.794 92.161, 434.917 134.117, 544.393 124.377, 562.706 92.641, 557.105 66.607, 524.609 "
fill = "none" stroke = "black"/>
</g>
<g>
<polygon points = "92.161, 434.917 100.278, 426.765 137.391, 439.275 187.137, 504.719 134.117, 544.393 "
fill = "none" stroke = "black"/>
</g>
<g>
<polygon points = "703.986, 632.338 759.975, 559.335 779.587, 609.768 777.293, 623.011 722.576, 654.334 710.834, 647.246 "
fill = "none" stroke = "black"/>
</g>
<g>
<polygon points = "500.177, 106.347 453.937, 100.686 512.502, 65.542 512.639, 65.886 "
fill = "none" stroke = "black"/>
</g>
<g>
<polygon points = "635.625, 132.139 636.147, 210.736 620.613, 206.297 587.556, 170.241 576.614, 127.473 595.109, 113.105 "
fill = "none" stroke = "black"/>
</g>
<g>
<polygon points = "697.423, 495.636 716.613, 528.677 669.711, 568.818 633.863, 558.420 622.665, 540.544 "
fill = "none" stroke = "black"/>
</g>
<g>
<polygon points = "667.489, 390.181 668.076, 390.265 741.304, 441.700 690.731, 472.281 655.926, 454.345 659.604, 398.961 "
fill = "none" stroke = "black"/>
</g>
<g>
<polygon points = "67.549, 887.709 67.906, 888.601 72.404, 943.538 0.000, 954.846 0.000, 925.904 "
fill = "none" stroke = "black"/>
</g>
<g>
<polygon points = "467.462, 529.983 442.201, 512.436 452.360, 475.700 458.988, 464.609 480.848, 458.624 507.315, 485.323 477.963, 529.042 "
fill = "none" stroke = "black"/>
</g>
<g>
<polygon points = "445.924, 351.350 424.860, 306.645 434.884, 285.309 462.877, 288.616 511.906, 339.887 488.873, 354.752 "
fill = "none" stroke = "black"/>
</g>
<g>
<polygon points = "878.012, 580.948 888.992, 581.425 920.499, 618.822 865.999, 654.152 "
fill = "none" stroke = "black"/>
</g>
<g>
<polygon points = "168.611, 216.742 194.425, 274.592 194.326, 285.010 160.061, 294.111 118.527, 220.228 147.788, 201.669 "
fill = "none" stroke = "black"/>
</g>
<g>
<polygon points = "820.558, 289.754 825.643, 300.641 823.504, 321.521 809.829, 329.900 789.340, 333.087 759.026, 295.973 763.260, 289.187 778.915, 278.986 "
fill = "none" stroke = "black"/>
</g>
<g>
<polygon points = "349.651, 938.668 393.305, 1000.000 312.038, 1000.000 "
fill = "none" stroke = "black"/>
</g>
<g>
<polygon points = "516.131, 610.266 537.662, 574.645 606.359, 609.412 607.335, 617.812 593.067, 638.638 515.518, 626.525 "
fill = "none" stroke = "black"/>
</g>
<g>
<polygon points = "51.138, 485.027 66.607, 524.609 0.000, 570.689 0.000, 500.590 "
fill = "none" stroke = "black"/>
</g>
<g>
<polygon points = "397.892, 343.655 412.578, 317.347 424.860, 306.645 445.924, 351.350 438.587, 374.031 407.936, 380.837 "
fill = "none" stroke = "black"/>
</g>
<g>
<polygon points = "167.397, 876.465 151.643, 853.435 141.846, 800.397 225.591, 858.756 199.793, 881.250 "
fill = "none" stroke = "black"/>
</g>
<g>
<polygon points = "679.095, 330.620 681.346, 325.080 715.123, 322.970 737.942, 349.975 723.098, 363.908 "
fill = "none" stroke = "black"/>
</g>
<g>
<polygon points = "400.991, 457.382 452.360, 475.700 442.201, 512.436 407.011, 518.648 "
fill = "none" stroke = "black"/>
</g>
<g>
<polygon points = "232.298, 308.050 296.957, 399.689 213.076, 420.497 207.811, 416.137 205.679, 374.482 226.973, 307.429 "
fill = "none" stroke = "black"/>
</g>
<g>
<polygon points = "453.937, 100.686 500.177, 106.347 517.189, 152.256 489.453, 178.312 453.643, 174.888 452.090, 173.059 446.688, 103.786 449.016, 101.855 "
fill = "none" stroke = "black"/>
</g>
<g>
<polygon points = "779.587, 609.768 759.975, 559.335 762.299, 547.337 800.749, 536.113 844.394, 574.901 831.640, 596.768 "
fill = "none" stroke = "black"/>
</g>
<g>
<polygon points = "679.095, 330.620 669.909, 344.292 585.413, 331.049 602.969, 286.209 665.016, 260.219 681.346, 325.080 "
fill = "none" stroke = "black"/>
</g>
<g>
<polygon points = "668.076, 390.265 702.074, 387.731 745.712, 419.975 747.922, 439.533 747.814, 439.652 741.304, 441.700 "
fill = "none" stroke = "black"/>
</g>
<g>
<polygon points = "115.250, 960.850 130.478, 908.672 167.397, 876.465 199.793, 881.250 209.531, 943.833 206.258, 962.904 197.374, 994.996 194.781, 1000.000 140.387, 1000.000 "
fill = "none" stroke = "black"/>
</g>
<g>
<polygon points = "939.369, 518.151 919.238, 505.077 903.083, 451.177 1000.000, 455.743 1000.000, 459.768 "
fill = "none" stroke = "black"/>
</g>
<g>
<polygon points = "264.855, 506.441 322.953, 456.446 324.827, 457.848 348.687, 509.320 290.647, 546.889 "
fill = "none" stroke = "black"/>
</g>
<g>
<polygon points = "517.189, 152.256 500.177, 106.347 512.639, 65.886 575.579, 127.492 "
fill = "none" stroke = "black"/>
</g>
<g>
<polygon points = "598.938, 822.737 590.142, 876.364 544.289, 896.607 522.156, 868.704 "
fill = "none" stroke = "black"/>
</g>
<g>
<polygon points = "275.326, 290.815 263.971, 188.231 292.849, 162.636 318.422, 159.480 326.120, 188.117 326.670, 195.869 281.441, 289.136 "
fill = "none" stroke = "black"/>
</g>
<g>
<polygon points = "119.629, 1.240 121.723, 23.807 92.044, 58.529 82.015, 64.486 40.808, 31.311 "
fill = "none" stroke = "black"/>
</g>
<g>
<polygon points = "329.157, 302.804 373.246, 259.275 428.404, 274.692 434.884, 285.309 424.860, 306.645 412.578, 317.347 331.686, 306.512 "
fill = "none" stroke = "black"/>
</g>
<g>
<polygon points = "690.731, 472.281 697.423, 495.636 622.665, 540.544 597.282, 514.022 597.797, 483.210 655.926, 454.345 "
fill = "none" stroke = "black"/>
</g>
<g>
<polygon points = "275.326, 290.815 232.298, 308.050 226.973, 307.429 194.326, 285.010 194.425, 274.592 235.866, 205.352 263.971, 188.231 "
fill = "none" stroke = "black"/>
</g>
<g>
<polygon points = "759.026, 295.973 751.486, 298.750 672.695, 243.923 675.045, 231.864 714.187, 196.542 716.494, 196.387 763.260, 289.187 "
fill = "none" stroke = "black"/>
</g>
<g>
<polygon points = "779.587, 609.768 831.640, 596.768 824.011, 642.438 800.142, 640.098 777.293, 623.011 "
fill = "none" stroke = "black"/>
</g>
<g>
<polygon points = "462.877, 288.616 495.128, 263.165 536.117, 289.452 541.047, 346.136 511.906, 339.887 "
fill = "none" stroke = "black"/>
</g>
<g>
<polygon points = "194.797, 141.428 195.911, 162.578 168.611, 216.742 147.788, 201.669 121.035, 160.966 122.676, 146.983 183.808, 132.535 "
fill = "none" stroke = "black"/>
</g>
<g>
<polygon points = "757.316, 383.063 770.340, 368.360 808.265, 392.729 801.519, 428.705 798.838, 435.014 747.922, 439.533 745.712, 419.975 749.519, 401.292 "
fill = "none" stroke = "black"/>
</g>
<g>
<polygon points = "854.998, 23.250 844.205, 27.241 765.750, 32.358 737.192, 0.000 860.511, 0.000 "
fill = "none" stroke = "black"/>
</g>
<g>
<circle cx = "850.324" cy = "83.887" r="2" stroke="yellow" stroke-width="2" fill="yellow" />
</g>
<g>
<circle cx = "896.898" cy = "19.916" r="2" stroke="yellow" stroke-width="2" fill="yellow" />
</g>
<g>
<circle cx = "435.125" cy = "396.101" r="2" stroke="yellow" stroke-width="2" fill="yellow" />
</g>
<g>
<circle cx = "95.667" cy = "882.874" r="2" stroke="yellow" stroke-width="2" fill="yellow" />
</g>
<g>
<circle cx = "950.845" cy = "333.886" r="2" stroke="yellow" stroke-width="2" fill="yellow" />
</g>
<g>
<circle cx = "260.508" cy = "470.013" r="2" stroke="yellow" stroke-width="2" fill="yellow" />
</g>
<g>
<circle cx = "615.331" cy = "420.127" r="2" stroke="yellow" stroke-width="2" fill="yellow" />
</g>
<g>
<circle cx = "940.261" cy = "853.554" r="2" stroke="yellow" stroke-width="2" fill="yellow" />
</g>
<g>
<circle cx = "148.929" cy = "102.155" r="2" stroke="yellow" stroke-width="2" fill="yellow" />
</g>
<g>
<circle cx = "442.728" cy = "63.701" r="2" stroke="yellow" stroke-width="2" fill="yellow" />
</g>
<g>
<circle cx = "322.595" cy = "550.726" r="2" stroke="yellow" stroke-width="2" fill="yellow" />
</g>
<g>
<circle cx = "728.465" cy = "81.410" r="2" stroke="yellow" stroke-width="2" fill="yellow" />
</g>
<g>
<circle cx = "803.668" cy = "186.568" r="2" stroke="yellow" stroke-width="2" fill="yellow" />
</g>
<g>
<circle cx = "791.415" cy = "858.686" r="2" stroke="yellow" stroke-width="2" fill="yellow" />
</g>
<g>
<circle cx = "119.846" cy = "76.945" r="2" stroke="yellow" stroke-width="2" fill="yellow" />
</g>
<g>
<circle cx = "639.224" cy = "651.518" r="2" stroke="yellow" stroke-width="2" fill="yellow" />
</g>
<g>
<circle cx = "762.182" cy = "254.761" r="2" stroke="yellow" stroke-width="2" fill="yellow" />
</g>
<g>
<circle cx = "372.999" cy = "325.852" r="2" stroke="yellow" stroke-width="2" fill="yellow" />
</g>
<g>
<circle cx = "741.127" cy = "332.967" r="2" stroke="yellow" stroke-width="2" fill="yellow" />
</g>
<g>
<circle cx = "897.825" cy = "346.013" r="2" stroke="yellow" stroke-width="2" fill="yellow" />
</g>
<g>
<circle cx = "908.043" cy = "293.609" r="2" stroke="yellow" stroke-width="2" fill="yellow" />
</g>
<g>
<circle cx = "726.526" cy = "122.941" r="2" stroke="yellow" stroke-width="2" fill="yellow" />
</g>
<g>
<circle cx = "550.144" cy = "69.546" r="2" stroke="yellow" stroke-width="2" fill="yellow" />
</g>
<g>
<circle cx = "717.200" cy = "295.188" r="2" stroke="yellow" stroke-width="2" fill="yellow" />
</g>
<g>
<circle cx = "959.302" cy = "674.437" r="2" stroke="yellow" stroke-width="2" fill="yellow" />
</g>
<g>
<circle cx = "512.728" cy = "511.375" r="2" stroke="yellow" stroke-width="2" fill="yellow" />
</g>
<g>
<circle cx = "426.043" cy = "649.109" r="2" stroke="yellow" stroke-width="2" fill="yellow" />
</g>
<g>
<circle cx = "654.970" cy = "774.605" r="2" stroke="yellow" stroke-width="2" fill="yellow" />
</g>
<g>
<circle cx = "714.842" cy = "954.306" r="2" stroke="yellow" stroke-width="2" fill="yellow" />
</g>
<g>
<circle cx = "980.018" cy = "353.143" r="2" stroke="yellow" stroke-width="2" fill="yellow" />
</g>
<g>
<circle cx = "736.522" cy = "485.055" r="2" stroke="yellow" stroke-width="2" fill="yellow" />
</g>
<g>
<circle cx = "249.169" cy = "469.041" r="2" stroke="yellow" stroke-width="2" fill="yellow" />
</g>
<g>
<circle cx = "190.493" cy = "674.488" r="2" stroke="yellow" stroke-width="2" fill="yellow" />
</g>
<g>
<circle cx = "475.541" cy = "73.719" r="2" stroke="yellow" stroke-width="2" fill="yellow" />
</g>
<g>
<circle cx = "125.310" cy = "56.189" r="2" stroke="yellow" stroke-width="2" fill="yellow" />
</g>
<g>
<circle cx = "94.084" cy = "899.471" r="2" stroke="yellow" stroke-width="2" fill="yellow" />
</g>
<g>
<circle cx = "955.937" cy = "400.811" r="2" stroke="yellow" stroke-width="2" fill="yellow" />
</g>
<g>
<circle cx = "41.725" cy = "899.838" r="2" stroke="yellow" stroke-width="2" fill="yellow" />
</g>
<g>
<circle cx = "825.788" cy = "355.447" r="2" stroke="yellow" stroke-width="2" fill="yellow" />
</g>
<g>
<circle cx = "485.636" cy = "964.861" r="2" stroke="yellow" stroke-width="2" fill="yellow" />
</g>
<g>
<circle cx = "562.084" cy = "980.809" r="2" stroke="yellow" stroke-width="2" fill="yellow" />
</g>
<g>
<circle cx = "838.125" cy = "489.374" r="2" stroke="yellow" stroke-width="2" fill="yellow" />
</g>
<g>
<circle cx = "398.034" cy = "953.005" r="2" stroke="yellow" stroke-width="2" fill="yellow" />
</g>
<g>
<circle cx = "347.969" cy = "785.930" r="2" stroke="yellow" stroke-width="2" fill="yellow" />
</g>
<g>
<circle cx = "299.795" cy = "823.619" r="2" stroke="yellow" stroke-width="2" fill="yellow" />
</g>
<g>
<circle cx = "778.584" cy = "649.135" r="2" stroke="yellow" stroke-width="2" fill="yellow" />
</g>
<g>
<circle cx = "536.168" cy = "505.318" r="2" stroke="yellow" stroke-width="2" fill="yellow" />
</g>
<g>
<circle cx = "725.380" cy = "391.546" r="2" stroke="yellow" stroke-width="2" fill="yellow" />
</g>
<g>
<circle cx = "116.285" cy = "208.136" r="2" stroke="yellow" stroke-width="2" fill="yellow" />
</g>
<g>
<circle cx = "258.254" cy = "936.305" r="2" stroke="yellow" stroke-width="2" fill="yellow" />
</g>
<g>
<circle cx = "190.463" cy = "454.437" r="2" stroke="yellow" stroke-width="2" fill="yellow" />
</g>
<g>
<circle cx = "159.882" cy = "635.078" r="2" stroke="yellow" stroke-width="2" fill="yellow" />
</g>
<g>
<circle cx = "305.760" cy = "963.572" r="2" stroke="yellow" stroke-width="2" fill="yellow" />
</g>
<g>
<circle cx = "759.922" cy = "332.172" r="2" stroke="yellow" stroke-width="2" fill="yellow" />
</g>
<g>
<circle cx = "281.818" cy = "54.308" r="2" stroke="yellow" stroke-width="2" fill="yellow" />
</g>
<g>
<circle cx = "645.520" cy = "167.317" r="2" stroke="yellow" stroke-width="2" fill="yellow" />
</g>
<g>
<circle cx = "574.997" cy = "894.508" r="2" stroke="yellow" stroke-width="2" fill="yellow" />
</g>
<g>
<circle cx = "965.038" cy = "587.074" r="2" stroke="yellow" stroke-width="2" fill="yellow" />
</g>
<g>
<circle cx = "693.441" cy = "981.666" r="2" stroke="yellow" stroke-width="2" fill="yellow" />
</g>
<g>
<circle cx = "558.958" cy = "285.720" r="2" stroke="yellow" stroke-width="2" fill="yellow" />
</g>
<g>
<circle cx = "557.283" cy = "60.223" r="2" stroke="yellow" stroke-width="2" fill="yellow" />
</g>
<g>
<circle cx = "987.614" cy = "526.490" r="2" stroke="yellow" stroke-width="2" fill="yellow" />
</g>
<g>
<circle cx = "693.813" cy = "82.139" r="2" stroke="yellow" stroke-width="2" fill="yellow" />
</g>
<g>
<circle cx = "81.466" cy = "603.470" r="2" stroke="yellow" stroke-width="2" fill="yellow" />
</g>
<g>
<circle cx = "896.132" cy = "643.430" r="2" stroke="yellow" stroke-width="2" fill="yellow" />
</g>
<g>
<circle cx = "492.312" cy = "386.082" r="2" stroke="yellow" stroke-width="2" fill="yellow" />
</g>
<g>
<circle cx = "983.891" cy = "931.433" r="2" stroke="yellow" stroke-width="2" fill="yellow" />
</g>
<g>
<circle cx = "822.618" cy = "56.072" r="2" stroke="yellow" stroke-width="2" fill="yellow" />
</g>
<g>
<circle cx = "424.623" cy = "843.485" r="2" stroke="yellow" stroke-width="2" fill="yellow" />
</g>
<g>
<circle cx = "731.196" cy = "382.800" r="2" stroke="yellow" stroke-width="2" fill="yellow" />
</g>
<g>
<circle cx = "3.100" cy = "278.913" r="2" stroke="yellow" stroke-width="2" fill="yellow" />
</g>
<g>
<circle cx = "425.971" cy = "457.203" r="2" stroke="yellow" stroke-width="2" fill="yellow" />
</g>
<g>
<circle cx = "402.005" cy = "37.430" r="2" stroke="yellow" stroke-width="2" fill="yellow" />
</g>
<g>
<circle cx = "38.577" cy = "684.685" r="2" stroke="yellow" stroke-width="2" fill="yellow" />
</g>
<g>
<circle cx = "40.433" cy = "246.022" r="2" stroke="yellow" stroke-width="2" fill="yellow" />
</g>
<g>
<circle cx = "497.846" cy = "909.676" r="2" stroke="yellow" stroke-width="2" fill="yellow" />
</g>
<g>
<circle cx = "183.052" cy = "554.945" r="2" stroke="yellow" stroke-width="2" fill="yellow" />
</g>
<g>
<circle cx = "473.447" cy = "239.635" r="2" stroke="yellow" stroke-width="2" fill="yellow" />
</g>
<g>
<circle cx = "181.979" cy = "653.252" r="2" stroke="yellow" stroke-width="2" fill="yellow" />
</g>
<g>
<circle cx = "381.738" cy = "219.555" r="2" stroke="yellow" stroke-width="2" fill="yellow" />
</g>
<g>
<circle cx = "923.105" cy = "242.492" r="2" stroke="yellow" stroke-width="2" fill="yellow" />
</g>
<g>
<circle cx = "841.882" cy = "63.183" r="2" stroke="yellow" stroke-width="2" fill="yellow" />
</g>
<g>
<circle cx = "271.187" cy = "784.856" r="2" stroke="yellow" stroke-width="2" fill="yellow" />
</g>
<g>
<circle cx = "452.370" cy = "628.172" r="2" stroke="yellow" stroke-width="2" fill="yellow" />
</g>
<g>
<circle cx = "119.230" cy = "844.967" r="2" stroke="yellow" stroke-width="2" fill="yellow" />
</g>
<g>
<circle cx = "781.767" cy = "471.841" r="2" stroke="yellow" stroke-width="2" fill="yellow" />
</g>
<g>
<circle cx = "902.348" cy = "665.618" r="2" stroke="yellow" stroke-width="2" fill="yellow" />
</g>
<g>
<circle cx = "804.549" cy = "264.504" r="2" stroke="yellow" stroke-width="2" fill="yellow" />
</g>
<g>
<circle cx = "45.222" cy = "552.010" r="2" stroke="yellow" stroke-width="2" fill="yellow" />
</g>
<g>
<circle cx = "226.777" cy = "172.124" r="2" stroke="yellow" stroke-width="2" fill="yellow" />
</g>
<g>
<circle cx = "243.809" cy = "908.399" r="2" stroke="yellow" stroke-width="2" fill="yellow" />
</g>
<g>
<circle cx = "340.268" cy = "604.325" r="2" stroke="yellow" stroke-width="2" fill="yellow" />
</g>
<g>
<circle cx = "389.462" cy = "196.456" r="2" stroke="yellow" stroke-width="2" fill="yellow" />
</g>
<g>
<circle cx = "994.060" cy = "929.144" r="2" stroke="yellow" stroke-width="2" fill="yellow" />
</g>
<g>
<circle cx = "628.518" cy = "360.991" r="2" stroke="yellow" stroke-width="2" fill="yellow" />
</g>
<g>
<circle cx = "442.010" cy = "756.215" r="2" stroke="yellow" stroke-width="2" fill="yellow" />
</g>
<g>
<circle cx = "260.345" cy = "104.335" r="2" stroke="yellow" stroke-width="2" fill="yellow" />
</g>
<g>
<circle cx = "665.054" cy = "845.365" r="2" stroke="yellow" stroke-width="2" fill="yellow" />
</g>
<g>
<circle cx = "682.800" cy = "789.834" r="2" stroke="yellow" stroke-width="2" fill="yellow" />
</g>
<g>
<circle cx = "587.941" cy = "575.042" r="2" stroke="yellow" stroke-width="2" fill="yellow" />
</g>
<g>
<circle cx = "650.104" cy = "32.189" r="2" stroke="yellow" stroke-width="2" fill="yellow" />
</g>
<g>
<circle cx = "542.154" cy = "742.522" r="2" stroke="yellow" stroke-width="2" fill="yellow" />
</g>
<g>
<circle cx = "143.593" cy = "663.498" r="2" stroke="yellow" stroke-width="2" fill="yellow" />
</g>
<g>
<circle cx = "697.475" cy = "704.671" r="2" stroke="yellow" stroke-width="2" fill="yellow" />
</g>
<g>
<circle cx = "835.484" cy = "413.010" r="2" stroke="yellow" stroke-width="2" fill="yellow" />
</g>
<g>
<circle cx = "20.162" cy = "205.600" r="2" stroke="yellow" stroke-width="2" fill="yellow" />
</g>
<g>
<circle cx = "57.387" cy = "990.296" r="2" stroke="yellow" stroke-width="2" fill="yellow" />
</g>
<g>
<circle cx = "561.731" cy = "653.503" r="2" stroke="yellow" stroke-width="2" fill="yellow" />
</g>
<g>
<circle cx = "252.169" cy = "432.119" r="2" stroke="yellow" stroke-width="2" fill="yellow" />
</g>
<g>
<circle cx = "171.127" cy = "395.590" r="2" stroke="yellow" stroke-width="2" fill="yellow" />
</g>
<g>
<circle cx = "526.707" cy = "268.306" r="2" stroke="yellow" stroke-width="2" fill="yellow" />
</g>
<g>
<circle cx = "798.154" cy = "663.389" r="2" stroke="yellow" stroke-width="2" fill="yellow" />
</g>
<g>
<circle cx = "802.404" cy = "687.035" r="2" stroke="yellow" stroke-width="2" fill="yellow" />
</g>
<g>
<circle cx = "539.983" cy = "710.654" r="2" stroke="yellow" stroke-width="2" fill="yellow" />
</g>
<g>
<circle cx = "820.452" cy = "919.805" r="2" stroke="yellow" stroke-width="2" fill="yellow" />
</g>
<g>
<circle cx = "512.398" cy = "459.205" r="2" stroke="yellow" stroke-width="2" fill="yellow" />
</g>
<g>
<circle cx = "766.901" cy = "490.669" r="2" stroke="yellow" stroke-width="2" fill="yellow" />
</g>
<g>
<circle cx = "713.510" cy = "576.527" r="2" stroke="yellow" stroke-width="2" fill="yellow" />
</g>
<g>
<circle cx = "258.753" cy = "542.616" r="2" stroke="yellow" stroke-width="2" fill="yellow" />
</g>
<g>
<circle cx = "365.277" cy = "815.302" r="2" stroke="yellow" stroke-width="2" fill="yellow" />
</g>
<g>
<circle cx = "141.432" cy = "677.470" r="2" stroke="yellow" stroke-width="2" fill="yellow" />
</g>
<g>
<circle cx = "387.615" cy = "17.665" r="2" stroke="yellow" stroke-width="2" fill="yellow" />
</g>
<g>
<circle cx = "883.481" cy = "697.411" r="2" stroke="yellow" stroke-width="2" fill="yellow" />
</g>
<g>
<circle cx = "73.756" cy = "164.464" r="2" stroke="yellow" stroke-width="2" fill="yellow" />
</g>
<g>
<circle cx = "50.974" cy = "330.307" r="2" stroke="yellow" stroke-width="2" fill="yellow" />
</g>
<g>
<circle cx = "203.334" cy = "194.022" r="2" stroke="yellow" stroke-width="2" fill="yellow" />
</g>
<g>
<circle cx = "713.710" cy = "831.224" r="2" stroke="yellow" stroke-width="2" fill="yellow" />
</g>
<g>
<circle cx = "153.988" cy = "19.292" r="2" stroke="yellow" stroke-width="2" fill="yellow" />
</g>
<g>
<circle cx = "932.051" cy = "144.893" r="2" stroke="yellow" stroke-width="2" fill="yellow" />
</g>
<g>
<circle cx = "656.782" cy = "102.345" r="2" stroke="yellow" stroke-width="2" fill="yellow" />
</g>
<g>
<circle cx = "873.772" cy = "748.383" r="2" stroke="yellow" stroke-width="2" fill="yellow" />
</g>
<g>
<circle cx = "390.673" cy = "684.322" r="2" stroke="yellow" stroke-width="2" fill="yellow" />
</g>
<g>
<circle cx = "838.935" cy = "428.703" r="2" stroke="yellow" stroke-width="2" fill="yellow" />
</g>
<g>
<circle cx = "221.979" cy = "106.411" r="2" stroke="yellow" stroke-width="2" fill="yellow" />
</g>
<g>
<circle cx = "8.612" cy = "453.428" r="2" stroke="yellow" stroke-width="2" fill="yellow" />
</g>
<g>
<circle cx = "604.827" cy = "242.235" r="2" stroke="yellow" stroke-width="2" fill="yellow" />
</g>
<g>
<circle cx = "708.380" cy = "894.026" r="2" stroke="yellow" stroke-width="2" fill="yellow" />
</g>
<g>
<circle cx = "459.554" cy = "366.320" r="2" stroke="yellow" stroke-width="2" fill="yellow" />
</g>
<g>
<circle cx = "408.182" cy = "933.642" r="2" stroke="yellow" stroke-width="2" fill="yellow" />
</g>
<g>
<circle cx = "518.507" cy = "913.422" r="2" stroke="yellow" stroke-width="2" fill="yellow" />
</g>
<g>
<circle cx = "333.841" cy = "255.385" r="2" stroke="yellow" stroke-width="2" fill="yellow" />
</g>
<g>
<circle cx = "488.009" cy = "566.722" r="2" stroke="yellow" stroke-width="2" fill="yellow" />
</g>
<g>
<circle cx = "934.460" cy = "435.609" r="2" stroke="yellow" stroke-width="2" fill="yellow" />
</g>
<g>
<circle cx = "842.921" cy = "246.997" r="2" stroke="yellow" stroke-width="2" fill="yellow" />
</g>
<g>
<circle cx = "260.413" cy = "808.837" r="2" stroke="yellow" stroke-width="2" fill="yellow" />
</g>
<g>
<circle cx = "848.385" cy = "278.824" r="2" stroke="yellow" stroke-width="2" fill="yellow" />
</g>
<g>
<circle cx = "434.938" cy = "556.708" r="2" stroke="yellow" stroke-width="2" fill="yellow" />
</g>
<g>
<circle cx = "652.519" cy = "655.934" r="2" stroke="yellow" stroke-width="2" fill="yellow" />
</g>
<g>
<circle cx = "933.203" cy = "373.607" r="2" stroke="yellow" stroke-width="2" fill="yellow" />
</g>
<g>
<circle cx = "938.021" cy = "588.950" r="2" stroke="yellow" stroke-width="2" fill="yellow" />
</g>
<g>
<circle cx = "165.766" cy = "367.678" r="2" stroke="yellow" stroke-width="2" fill="yellow" />
</g>
<g>
<circle cx = "937.790" cy = "704.574" r="2" stroke="yellow" stroke-width="2" fill="yellow" />
</g>
<g>
<circle cx = "406.716" cy = "1.988" r="2" stroke="yellow" stroke-width="2" fill="yellow" />
</g>
<g>
<circle cx = "15.615" cy = "210.022" r="2" stroke="yellow" stroke-width="2" fill="yellow" />
</g>
<g>
<circle cx = "32.232" cy = "764.201" r="2" stroke="yellow" stroke-width="2" fill="yellow" />
</g>
<g>
<circle cx = "892.390" cy = "531.938" r="2" stroke="yellow" stroke-width="2" fill="yellow" />
</g>
<g>
<circle cx = "380.599" cy = "828.343" r="2" stroke="yellow" stroke-width="2" fill="yellow" />
</g>
<g>
<circle cx = "669.611" cy = "801.751" r="2" stroke="yellow" stroke-width="2" fill="yellow" />
</g>
<g>
<circle cx = "612.847" cy = "882.927" r="2" stroke="yellow" stroke-width="2" fill="yellow" />
</g>
<g>
<circle cx = "888.364" cy = "482.961" r="2" stroke="yellow" stroke-width="2" fill="yellow" />
</g>
<g>
<circle cx = "204.241" cy = "707.603" r="2" stroke="yellow" stroke-width="2" fill="yellow" />
</g>
<g>
<circle cx = "855.622" cy = "310.360" r="2" stroke="yellow" stroke-width="2" fill="yellow" />
</g>
<g>
<circle cx = "464.301" cy = "611.026" r="2" stroke="yellow" stroke-width="2" fill="yellow" />
</g>
<g>
<circle cx = "918.258" cy = "160.872" r="2" stroke="yellow" stroke-width="2" fill="yellow" />
</g>
<g>
<circle cx = "385.231" cy = "476.765" r="2" stroke="yellow" stroke-width="2" fill="yellow" />
</g>
<g>
<circle cx = "308.024" cy = "345.512" r="2" stroke="yellow" stroke-width="2" fill="yellow" />
</g>
<g>
<circle cx = "705.175" cy = "764.655" r="2" stroke="yellow" stroke-width="2" fill="yellow" />
</g>
<g>
<circle cx = "45.266" cy = "79.848" r="2" stroke="yellow" stroke-width="2" fill="yellow" />
</g>
<g>
<circle cx = "80.887" cy = "3.573" r="2" stroke="yellow" stroke-width="2" fill="yellow" />
</g>
<g>
<circle cx = "123.604" cy = "871.768" r="2" stroke="yellow" stroke-width="2" fill="yellow" />
</g>
<g>
<circle cx = "77.951" cy = "202.914" r="2" stroke="yellow" stroke-width="2" fill="yellow" />
</g>
<g>
<circle cx = "32.417" cy = "389.531" r="2" stroke="yellow" stroke-width="2" fill="yellow" />
</g>
<g>
<circle cx = "581.422" cy = "208.495" r="2" stroke="yellow" stroke-width="2" fill="yellow" />
</g>
<g>
<circle cx = "645.197" cy = "605.924" r="2" stroke="yellow" stroke-width="2" fill="yellow" />
</g>
<g>
<circle cx = "279.764" cy = "722.254" r="2" stroke="yellow" stroke-width="2" fill="yellow" />
</g>
<g>
<circle cx = "262.505" cy = "947.177" r="2" stroke="yellow" stroke-width="2" fill="yellow" />
</g>
<g>
<circle cx = "736.546" cy = "367.222" r="2" stroke="yellow" stroke-width="2" fill="yellow" />
</g>
<g>
<circle cx = "53.041" cy = "643.048" r="2" stroke="yellow" stroke-width="2" fill="yellow" />
</g>
<g>
<circle cx = "852.462" cy = "625.174" r="2" stroke="yellow" stroke-width="2" fill="yellow" />
</g>
<g>
<circle cx = "196.881" cy = "659.934" r="2" stroke="yellow" stroke-width="2" fill="yellow" />
</g>
<g>
<circle cx = "912.164" cy = "672.677" r="2" stroke="yellow" stroke-width="2" fill="yellow" />
</g>
<g>
<circle cx = "552.319" cy = "186.346" r="2" stroke="yellow" stroke-width="2" fill="yellow" />
</g>
<g>
<circle cx = "537.273" cy = "826.461" r="2" stroke="yellow" stroke-width="2" fill="yellow" />
</g>
<g>
<circle cx = "354.778" cy = "663.934" r="2" stroke="yellow" stroke-width="2" fill="yellow" />
</g>
<g>
<circle cx = "306.782" cy = "63.932" r="2" stroke="yellow" stroke-width="2" fill="yellow" />
</g>
<g>
<circle cx = "323.737" cy = "703.449" r="2" stroke="yellow" stroke-width="2" fill="yellow" />
</g>
<g>
<circle cx = "276.278" cy = "977.592" r="2" stroke="yellow" stroke-width="2" fill="yellow" />
</g>
<g>
<circle cx = "943.305" cy = "800.241" r="2" stroke="yellow" stroke-width="2" fill="yellow" />
</g>
<g>
<circle cx = "379.478" cy = "368.099" r="2" stroke="yellow" stroke-width="2" fill="yellow" />
</g>
<g>
<circle cx = "317.393" cy = "822.314" r="2" stroke="yellow" stroke-width="2" fill="yellow" />
</g>
<g>
<circle cx = "522.690" cy = "421.386" r="2" stroke="yellow" stroke-width="2" fill="yellow" />
</g>
<g>
<circle cx = "34.662" cy = "341.448" r="2" stroke="yellow" stroke-width="2" fill="yellow" />
</g>
<g>
<circle cx = "795.693" cy = "992.617" r="2" stroke="yellow" stroke-width="2" fill="yellow" />
</g>
<g>
<circle cx = "396.598" cy = "227.298" r="2" stroke="yellow" stroke-width="2" fill="yellow" />
</g>
<g>
<circle cx = "373.822" cy = "417.773" r="2" stroke="yellow" stroke-width="2" fill="yellow" />
</g>
<g>
<circle cx = "582.823" cy = "1.594" r="2" stroke="yellow" stroke-width="2" fill="yellow" />
</g>
<g>
<circle cx = "465.036" cy = "431.317" r="2" stroke="yellow" stroke-width="2" fill="yellow" />
</g>
<g>
<circle cx = "957.030" cy = "990.333" r="2" stroke="yellow" stroke-width="2" fill="yellow" />
</g>
<g>
<circle cx = "186.147" cy = "823.535" r="2" stroke="yellow" stroke-width="2" fill="yellow" />
</g>
<g>
<circle cx = "793.685" cy = "845.206" r="2" stroke="yellow" stroke-width="2" fill="yellow" />
</g>
<g>
<circle cx = "856.395" cy = "525.419" r="2" stroke="yellow" stroke-width="2" fill="yellow" />
</g>
<g>
<circle cx = "119.474" cy = "232.489" r="2" stroke="yellow" stroke-width="2" fill="yellow" />
</g>
<g>
<circle cx = "709.313" cy = "365.252" r="2" stroke="yellow" stroke-width="2" fill="yellow" />
</g>
<g>
<circle cx = "258.240" cy = "716.770" r="2" stroke="yellow" stroke-width="2" fill="yellow" />
</g>
<g>
<circle cx = "696.409" cy = "869.768" r="2" stroke="yellow" stroke-width="2" fill="yellow" />
</g>
<g>
<circle cx = "802.892" cy = "359.213" r="2" stroke="yellow" stroke-width="2" fill="yellow" />
</g>
<g>
<circle cx = "624.321" cy = "653.677" r="2" stroke="yellow" stroke-width="2" fill="yellow" />
</g>
<g>
<circle cx = "383.806" cy = "596.685" r="2" stroke="yellow" stroke-width="2" fill="yellow" />
</g>
<g>
<circle cx = "410.235" cy = "120.925" r="2" stroke="yellow" stroke-width="2" fill="yellow" />
</g>
<g>
<circle cx = "98.014" cy = "509.716" r="2" stroke="yellow" stroke-width="2" fill="yellow" />
</g>
<g>
<circle cx = "137.798" cy = "494.469" r="2" stroke="yellow" stroke-width="2" fill="yellow" />
</g>
<g>
<circle cx = "755.419" cy = "608.669" r="2" stroke="yellow" stroke-width="2" fill="yellow" />
</g>
<g>
<circle cx = "487.898" cy = "94.309" r="2" stroke="yellow" stroke-width="2" fill="yellow" />
</g>
<g>
<circle cx = "626.198" cy = "167.445" r="2" stroke="yellow" stroke-width="2" fill="yellow" />
</g>
<g>
<circle cx = "668.857" cy = "524.354" r="2" stroke="yellow" stroke-width="2" fill="yellow" />
</g>
<g>
<circle cx = "700.689" cy = "425.797" r="2" stroke="yellow" stroke-width="2" fill="yellow" />
</g>
<g>
<circle cx = "43.844" cy = "903.585" r="2" stroke="yellow" stroke-width="2" fill="yellow" />
</g>
<g>
<circle cx = "481.153" cy = "490.177" r="2" stroke="yellow" stroke-width="2" fill="yellow" />
</g>
<g>
<circle cx = "461.741" cy = "338.712" r="2" stroke="yellow" stroke-width="2" fill="yellow" />
</g>
<g>
<circle cx = "888.087" cy = "631.021" r="2" stroke="yellow" stroke-width="2" fill="yellow" />
</g>
<g>
<circle cx = "128.510" cy = "227.410" r="2" stroke="yellow" stroke-width="2" fill="yellow" />
</g>
<g>
<circle cx = "794.317" cy = "304.078" r="2" stroke="yellow" stroke-width="2" fill="yellow" />
</g>
<g>
<circle cx = "347.353" cy = "989.079" r="2" stroke="yellow" stroke-width="2" fill="yellow" />
</g>
<g>
<circle cx = "567.756" cy = "614.925" r="2" stroke="yellow" stroke-width="2" fill="yellow" />
</g>
<g>
<circle cx = "33.425" cy = "534.958" r="2" stroke="yellow" stroke-width="2" fill="yellow" />
</g>
<g>
<circle cx = "426.109" cy = "355.501" r="2" stroke="yellow" stroke-width="2" fill="yellow" />
</g>
<g>
<circle cx = "178.892" cy = "833.947" r="2" stroke="yellow" stroke-width="2" fill="yellow" />
</g>
<g>
<circle cx = "720.642" cy = "350.277" r="2" stroke="yellow" stroke-width="2" fill="yellow" />
</g>
<g>
<circle cx = "420.221" cy = "473.327" r="2" stroke="yellow" stroke-width="2" fill="yellow" />
</g>
<g>
<circle cx = "242.205" cy = "391.952" r="2" stroke="yellow" stroke-width="2" fill="yellow" />
</g>
<g>
<circle cx = "485.357" cy = "115.067" r="2" stroke="yellow" stroke-width="2" fill="yellow" />
</g>
<g>
<circle cx = "796.664" cy = "592.630" r="2" stroke="yellow" stroke-width="2" fill="yellow" />
</g>
<g>
<circle cx = "635.612" cy = "315.731" r="2" stroke="yellow" stroke-width="2" fill="yellow" />
</g>
<g>
<circle cx = "712.565" cy = "408.889" r="2" stroke="yellow" stroke-width="2" fill="yellow" />
</g>
<g>
<circle cx = "166.107" cy = "920.490" r="2" stroke="yellow" stroke-width="2" fill="yellow" />
</g>
<g>
<circle cx = "932.858" cy = "469.625" r="2" stroke="yellow" stroke-width="2" fill="yellow" />
</g>
<g>
<circle cx = "300.228" cy = "516.170" r="2" stroke="yellow" stroke-width="2" fill="yellow" />
</g>
<g>
<circle cx = "517.101" cy = "103.304" r="2" stroke="yellow" stroke-width="2" fill="yellow" />
</g>
<g>
<circle cx = "566.531" cy = "875.330" r="2" stroke="yellow" stroke-width="2" fill="yellow" />
</g>
<g>
<circle cx = "275.496" cy = "227.091" r="2" stroke="yellow" stroke-width="2" fill="yellow" />
</g>
<g>
<circle cx = "89.178" cy = "25.305" r="2" stroke="yellow" stroke-width="2" fill="yellow" />
</g>
<g>
<circle cx = "376.633" cy = "298.725" r="2" stroke="yellow" stroke-width="2" fill="yellow" />
</g>
<g>
<circle cx = "658.653" cy = "507.368" r="2" stroke="yellow" stroke-width="2" fill="yellow" />
</g>
<g>
<circle cx = "261.224" cy = "228.670" r="2" stroke="yellow" stroke-width="2" fill="yellow" />
</g>
<g>
<circle cx = "736.232" cy = "267.839" r="2" stroke="yellow" stroke-width="2" fill="yellow" />
</g>
<g>
<circle cx = "802.716" cy = "616.864" r="2" stroke="yellow" stroke-width="2" fill="yellow" />
</g>
<g>
<circle cx = "512.974" cy = "289.720" r="2" stroke="yellow" stroke-width="2" fill="yellow" />
</g>
<g>
<circle cx = "166.220" cy = "175.315" r="2" stroke="yellow" stroke-width="2" fill="yellow" />
</g>
<g>
<circle cx = "775.547" cy = "401.770" r="2" stroke="yellow" stroke-width="2" fill="yellow" />
</g>
<g>
<circle cx = "819.056" cy = "1.459" r="2" stroke="yellow" stroke-width="2" fill="yellow" />
</g>
</svg>
